<svg width="100%" height="100%" viewBox="0 0 1080 623" version="1.1" xmlns="http://www.w3.org/2000/svg" style="fill-rule:evenodd;clip-rule:evenodd;stroke-linejoin:round;stroke-miterlimit:2;">
    <path d="M107.634,520.269l24.712,0c18.671,0 35.329,-2.929 49.973,-8.786c14.644,-5.858 27,-13.912 37.068,-24.163c10.068,-10.251 17.756,-22.424 23.065,-36.519c5.308,-14.095 7.962,-29.563 7.962,-46.403c0,-16.475 -2.745,-31.851 -8.237,-46.129c-5.491,-14.278 -13.271,-26.543 -23.339,-36.794c-10.068,-10.251 -22.424,-18.305 -37.068,-24.162c-14.644,-5.858 -31.119,-8.787 -49.424,-8.787l-24.712,0l0,231.743Zm-107.634,-322.903l159.255,0c28.19,0 54.641,5.675 79.353,17.024c24.712,11.349 46.312,26.451 64.8,45.305c18.488,18.855 33.041,40.821 43.658,65.899c10.617,25.078 15.925,51.346 15.925,78.804c0,27.091 -5.217,53.176 -15.651,78.254c-10.434,25.078 -24.895,47.136 -43.383,66.173c-18.488,19.038 -40.088,34.231 -64.8,45.58c-24.712,11.349 -51.346,17.024 -79.902,17.024l-159.255,-0l0,-414.063Z" style="fill:rgb(51,51,51);fill-rule:nonzero;"/>
    <path d="M542.565,288.526l-0,322.903l-107.635,-0l0,-322.903l-88.414,0l0,-91.16l284.462,0l0,91.16l-88.413,0Z" style="fill:rgb(51,51,51);fill-rule:nonzero;"/>
    <path d="M42.775,-0l36.55,93.505l36.75,-93.505l42.776,-0l-63.862,153.601l-31.328,-0l-63.661,-153.601l42.775,-0Z" style="fill:rgb(51,51,51);fill-rule:nonzero;"/>
    <path d="M220.905,96.561l-17.673,-51.133l-17.672,51.133l35.345,-0Zm10.442,30.353l-56.23,0l-9.037,26.687l-41.972,-0l57.636,-153.601l42.976,-0l57.636,153.601l-41.972,-0l-9.037,-26.687Z" style="fill:rgb(51,51,51);fill-rule:nonzero;"/>
    <path d="M332.964,-0l-0,119.784l47.193,0l-0,33.817l-86.555,-0l0,-153.601l39.362,-0Z" style="fill:rgb(51,51,51);fill-rule:nonzero;"/>
    <rect x="394.415" y="-0" width="39.361" height="153.601" style="fill:rgb(51,51,51);fill-rule:nonzero;"/>
    <path d="M490.81,119.784l9.037,0c6.828,0 12.92,-1.086 18.275,-3.259c5.355,-2.173 9.874,-5.161 13.555,-8.964c3.682,-3.802 6.494,-8.318 8.435,-13.547c1.941,-5.228 2.912,-10.966 2.912,-17.214c-0,-6.111 -1.004,-11.815 -3.012,-17.112c-2.009,-5.296 -4.854,-9.846 -8.535,-13.649c-3.682,-3.802 -8.201,-6.79 -13.556,-8.963c-5.355,-2.173 -11.38,-3.259 -18.074,-3.259l-9.037,-0l0,85.967Zm-39.361,-119.784l58.238,-0c10.309,-0 19.982,2.105 29.019,6.315c9.037,4.21 16.936,9.812 23.697,16.807c6.761,6.994 12.083,15.142 15.966,24.445c3.882,9.303 5.823,19.048 5.823,29.233c0,10.05 -1.907,19.727 -5.723,29.03c-3.816,9.303 -9.104,17.485 -15.865,24.547c-6.761,7.062 -14.66,12.698 -23.697,16.909c-9.037,4.21 -18.777,6.315 -29.22,6.315l-58.238,-0l-0,-153.601Z" style="fill:rgb(51,51,51);fill-rule:nonzero;"/>
    <path d="M673.558,96.561l-17.672,-51.133l-17.672,51.133l35.344,-0Zm10.443,30.353l-56.23,0l-9.037,26.687l-41.972,-0l57.636,-153.601l42.976,-0l57.636,153.601l-41.972,-0l-9.037,-26.687Z" style="fill:rgb(51,51,51);fill-rule:nonzero;"/>
    <path d="M791.642,33.817l0,119.784l-39.361,-0l-0,-119.784l-32.333,-0l0,-33.817l104.026,-0l0,33.817l-32.332,-0Z" style="fill:rgb(51,51,51);fill-rule:nonzero;"/>
    <path d="M921.574,33.817l-46.791,-0l-0,25.668l44.181,-0l-0,33.816l-44.181,0l-0,26.483l46.791,0l0,33.817l-86.153,-0l0,-153.601l86.153,-0l0,33.817Z" style="fill:rgb(51,51,51);fill-rule:nonzero;"/>
    <path d="M980.214,119.784l9.037,0c6.828,0 12.92,-1.086 18.275,-3.259c5.355,-2.173 9.874,-5.161 13.556,-8.964c3.681,-3.802 6.493,-8.318 8.434,-13.547c1.942,-5.228 2.912,-10.966 2.912,-17.214c0,-6.111 -1.004,-11.815 -3.012,-17.112c-2.008,-5.296 -4.853,-9.846 -8.535,-13.649c-3.682,-3.802 -8.2,-6.79 -13.556,-8.963c-5.355,-2.173 -11.38,-3.259 -18.074,-3.259l-9.037,-0l0,85.967Zm-39.361,-119.784l58.239,-0c10.309,-0 19.981,2.105 29.019,6.315c9.037,4.21 16.936,9.812 23.697,16.807c6.761,6.994 12.082,15.142 15.965,24.445c3.883,9.303 5.824,19.048 5.824,29.233c-0,10.05 -1.908,19.727 -5.724,29.03c-3.815,9.303 -9.104,17.485 -15.865,24.547c-6.761,7.062 -14.66,12.698 -23.697,16.909c-9.037,4.21 -18.777,6.315 -29.219,6.315l-58.239,-0l0,-153.601Z" style="fill:rgb(51,51,51);fill-rule:nonzero;"/>
    <path d="M1050.7,305.806c2.077,4.127 4.036,8.344 5.877,12.649c11.349,26.542 17.024,55.19 17.024,85.943c-0,30.752 -5.675,59.4 -17.024,85.942c-11.349,26.543 -27.183,49.699 -47.502,69.468c-20.319,19.77 -44.573,35.238 -72.763,46.404c-28.19,11.166 -58.942,16.749 -92.258,16.749c-33.681,0 -64.525,-5.583 -92.532,-16.749c-28.007,-11.166 -52.078,-26.634 -72.214,-46.404c-20.136,-19.769 -35.878,-42.925 -47.227,-69.468c-11.35,-26.542 -17.024,-55.19 -17.024,-85.942c-0,-30.753 5.674,-59.401 17.024,-85.943c11.349,-26.542 27.091,-49.698 47.227,-69.468c20.136,-19.77 44.207,-35.237 72.214,-46.404c28.007,-11.166 58.851,-16.749 92.532,-16.749c33.316,0 64.068,5.583 92.258,16.749c17.305,6.855 33.128,15.331 47.467,25.428c-24.82,23.704 -53.452,52.376 -78.552,78.755c-5.198,-3.074 -10.671,-5.767 -16.417,-8.081c-14.095,-5.674 -29.013,-8.511 -44.756,-8.511c-15.742,-0 -30.661,2.837 -44.756,8.511c-14.095,5.675 -26.451,13.638 -37.068,23.889c-10.617,10.251 -19.037,22.332 -25.261,36.244c-6.224,13.912 -9.335,29.105 -9.335,45.58c-0,16.474 3.111,31.668 9.335,45.579c6.224,13.912 14.644,25.994 25.261,36.245c10.617,10.251 22.973,18.213 37.068,23.888c14.095,5.674 29.014,8.512 44.756,8.512c15.743,-0 30.661,-2.838 44.756,-8.512c14.095,-5.675 26.543,-13.637 37.343,-23.888c10.8,-10.251 19.312,-22.333 25.536,-36.245c6.223,-13.911 9.335,-29.105 9.335,-45.579c0,-3.518 -0.142,-6.977 -0.425,-10.378c27.787,-29.697 56.68,-58.027 80.377,-79.479c3.376,-3.056 6.623,-5.976 9.724,-8.735Z" style="fill:rgb(51,51,51);fill-rule:nonzero;"/>
    <path d="M786.398,325.803c-0,-0 59.461,55.473 67.221,67.551c6.585,-22.008 158.866,-175.71 193.885,-200.1c0.931,8.126 26.519,65.393 32.496,70.486c-24.798,8.246 -174.613,152.52 -222.34,232.666c-33.805,-40.279 -92.171,-103.387 -108.833,-107.156c14.481,-12.552 34.379,-59.062 37.571,-63.447Z" style="fill:rgb(13,184,22);"/>
</svg>
